<svg xmlns="http://www.w3.org/2000/svg" xmlns:xlink="http://www.w3.org/1999/xlink">
    <symbol viewBox="0 0 21 23" id="arrow-to-right">
        <path
            d="M19.5 8.90193C21.5 10.0566 21.5 12.9434 19.5 14.0981L5.25 22.3253C3.25 23.48 0.750001 22.0366 0.750001 19.7272L0.750002 3.27276C0.750002 0.963354 3.25 -0.480018 5.25 0.674683L19.5 8.90193Z"
            fill="#3CD174" />
    </symbol>
    <symbol width="24" height="24" viewBox="0 0 24 24" id="facebook">
        <g clip-path="url(#clip0_44_272)">
            <path
                d="M23.625 12.5454C23.625 18.3579 19.3594 23.186 13.7812 24.0298V15.9204H16.5L17.0156 12.5454H13.7812V10.3892C13.7812 9.45166 14.25 8.56104 15.7031 8.56104H17.1562V5.70166C17.1562 5.70166 15.8438 5.46729 14.5312 5.46729C11.9062 5.46729 10.1719 7.10791 10.1719 10.0142V12.5454H7.21875V15.9204H10.1719V24.0298C4.59375 23.186 0.375 18.3579 0.375 12.5454C0.375 6.12354 5.57812 0.92041 12 0.92041C18.4219 0.92041 23.625 6.12354 23.625 12.5454Z"
                fill="black" />
        </g>
        <defs>
            <clipPath id="clip0_44_272">
                <rect width="24" height="24" fill="white" />
            </clipPath>
        </defs>
    </symbol>
    <symbol width="22" height="22" viewBox="0 0 22 22" id="instagram">
        <g clip-path="url(#clip0_44_274)">
            <path
                d="M11.2334 5.85938C14.1865 5.85938 16.624 8.29688 16.624 11.25C16.624 14.25 14.1865 16.6406 11.2334 16.6406C8.2334 16.6406 5.84277 14.25 5.84277 11.25C5.84277 8.29688 8.2334 5.85938 11.2334 5.85938ZM11.2334 14.7656C13.1553 14.7656 14.7021 13.2188 14.7021 11.25C14.7021 9.32812 13.1553 7.78125 11.2334 7.78125C9.26465 7.78125 7.71777 9.32812 7.71777 11.25C7.71777 13.2188 9.31152 14.7656 11.2334 14.7656ZM18.0771 5.67188C18.0771 6.375 17.5146 6.9375 16.8115 6.9375C16.1084 6.9375 15.5459 6.375 15.5459 5.67188C15.5459 4.96875 16.1084 4.40625 16.8115 4.40625C17.5146 4.40625 18.0771 4.96875 18.0771 5.67188ZM21.6396 6.9375C21.7334 8.67188 21.7334 13.875 21.6396 15.6094C21.5459 17.2969 21.1709 18.75 19.9521 20.0156C18.7334 21.2344 17.2334 21.6094 15.5459 21.7031C13.8115 21.7969 8.6084 21.7969 6.87402 21.7031C5.18652 21.6094 3.7334 21.2344 2.46777 20.0156C1.24902 18.75 0.874023 17.2969 0.780273 15.6094C0.686523 13.875 0.686523 8.67188 0.780273 6.9375C0.874023 5.25 1.24902 3.75 2.46777 2.53125C3.7334 1.3125 5.18652 0.9375 6.87402 0.84375C8.6084 0.75 13.8115 0.75 15.5459 0.84375C17.2334 0.9375 18.7334 1.3125 19.9521 2.53125C21.1709 3.75 21.5459 5.25 21.6396 6.9375ZM19.3896 17.4375C19.9521 16.0781 19.8115 12.7969 19.8115 11.25C19.8115 9.75 19.9521 6.46875 19.3896 5.0625C19.0146 4.17188 18.3115 3.42188 17.4209 3.09375C16.0146 2.53125 12.7334 2.67188 11.2334 2.67188C9.68652 2.67188 6.40527 2.53125 5.0459 3.09375C4.1084 3.46875 3.40527 4.17188 3.03027 5.0625C2.46777 6.46875 2.6084 9.75 2.6084 11.25C2.6084 12.7969 2.46777 16.0781 3.03027 17.4375C3.40527 18.375 4.1084 19.0781 5.0459 19.4531C6.40527 20.0156 9.68652 19.875 11.2334 19.875C12.7334 19.875 16.0146 20.0156 17.4209 19.4531C18.3115 19.0781 19.0615 18.375 19.3896 17.4375Z"
                fill="black" />
        </g>
        <defs>
            <clipPath id="clip0_44_274">
                <rect width="22" height="22" fill="white" />
            </clipPath>
        </defs>
    </symbol>
    <symbol width="25" height="21" viewBox="0 0 25 21" id="telegram">
        <g clip-path="url(#clip0_129_218)">
            <mask id="mask0_129_218" style="mask-type:luminance" maskUnits="userSpaceOnUse" x="0" y="0" width="25"
                height="21">
                <path d="M25 0H0V21H25V0Z" fill="white" />
            </mask>
            <g mask="url(#mask0_129_218)">
                <path
                    d="M9.47713 18.9264C9.59323 17.2737 9.70493 15.6206 9.83337 13.9689C9.84309 13.8439 9.94861 13.7038 10.0472 13.612C11.9174 11.8676 13.7911 10.1268 15.6682 8.38982C17.1069 7.05581 18.5453 5.7214 19.9833 4.38657C20.1016 4.27616 20.3657 4.17518 20.1903 3.95022C20.0318 3.74678 19.869 3.95762 19.7362 4.03918C16.2416 6.18457 12.7492 8.33339 9.2588 10.4856C8.35446 11.0423 7.44742 11.5937 6.54845 12.1587C6.47418 12.2104 6.38828 12.2425 6.29855 12.2522C6.20883 12.2619 6.11812 12.2488 6.03469 12.2142C4.25267 11.5989 2.46893 10.9889 0.683457 10.3839C0.225051 10.2273 0.00904619 9.97555 -0.000180592 9.57779C-0.00928517 9.17405 0.183133 8.92431 0.647894 8.74553C3.80431 7.5294 6.96074 6.3136 10.1172 5.09813C14.3978 3.44791 18.6792 1.79982 22.9614 0.153876C23.2663 0.0373595 23.6335 -0.0361878 23.9471 0.0172619C24.72 0.149252 25.1352 0.87517 24.96 1.69202C24.6401 3.18534 24.3088 4.67614 23.9824 6.16774C22.9759 10.7681 21.9693 15.3684 20.9626 19.9687C20.7362 21.0026 19.901 21.3047 19.0622 20.6646C17.2563 19.2859 15.4498 17.908 13.6427 16.531C13.4644 16.3943 13.3546 16.3798 13.184 16.552C12.2559 17.4882 11.3136 18.4101 10.3782 19.3389C10.1944 19.5215 10.0182 19.7169 9.72375 19.5828C9.42929 19.4486 9.45257 19.1852 9.47683 18.9262"
                    fill="black" />
            </g>
        </g>
        <defs>
            <clipPath id="clip0_129_218">
                <rect width="25" height="21" fill="white" />
            </clipPath>
        </defs>
    </symbol>
    <symbol width="22" height="21" viewBox="0 0 22 21" id="xtwitter">
        <g clip-path="url(#clip0_129_212)">
            <mask id="mask0_129_212" style="mask-type:luminance" maskUnits="userSpaceOnUse" x="0" y="0" width="22"
                height="21">
                <path d="M22 0H0V21H22V0Z" fill="white" />
            </mask>
            <g mask="url(#mask0_129_212)">
                <path
                    d="M0 20.9678L8.5357 11.583L0.0375756 0.0200782C0.112107 0.0119202 0.154845 0.00307787 0.197582 0.00307787C2.2662 0.00251646 4.33484 0.00146381 6.40349 -8.00843e-05C6.4601 -0.0042983 6.5168 0.00687144 6.56779 0.0322897C6.61879 0.0577079 6.66226 0.0964649 6.69377 0.144607C8.38533 2.45343 10.0788 4.76066 11.7742 7.06633C11.8983 7.23533 12.0263 7.40144 12.1668 7.58791C12.43 7.30022 12.6817 7.02601 12.9322 6.75058C14.9375 4.5465 16.942 2.34158 18.9455 0.135817C18.9842 0.0895354 19.033 0.0531373 19.0879 0.0295385C19.1429 0.00593961 19.2025 -0.00420407 19.262 -8.00843e-05C19.7487 0.00628846 20.2355 0.00181469 20.7222 0.00144626C20.795 0.00144626 20.8678 0.00144626 20.9405 0.00144626L20.9598 0.0443945C20.7975 0.224135 20.636 0.404454 20.4731 0.583511C18.7319 2.49758 16.9906 4.41166 15.2489 6.32573C14.5439 7.1009 13.8423 7.87939 13.1327 8.65041C13.0427 8.74831 13.0541 8.80831 13.1237 8.90305C14.4698 10.7306 15.8145 12.5591 17.1579 14.3887C18.6687 16.4446 20.1793 18.5006 21.6897 20.5567C21.7862 20.6883 21.8827 20.8195 21.9998 20.9791C21.924 20.9872 21.8771 20.9967 21.83 20.9967C19.7556 20.9976 17.6812 20.9987 15.6067 21.0001C15.5587 21.0031 15.5107 20.993 15.4678 20.9708C15.4249 20.9486 15.3885 20.9151 15.3625 20.8738C13.5476 18.4005 11.7308 15.9286 9.91211 13.4581L9.39958 12.7615C9.19384 12.9851 8.99987 13.1939 8.80802 13.4048C6.53896 15.8989 4.26944 18.3925 1.99946 20.8856C1.95273 20.9423 1.88759 20.9799 1.81591 20.9917C1.23664 20.9994 0.657212 20.9958 0.0778352 20.9947C0.0510206 20.9886 0.0249266 20.9796 0 20.9678ZM2.88166 1.45753C2.92687 1.52732 2.95495 1.57606 2.98798 1.62106C3.65172 2.52357 4.31574 3.42581 4.98006 4.3278C6.76566 6.75672 8.55096 9.18588 10.336 11.6153C12.2495 14.2195 14.1621 16.8243 16.0738 19.4298C16.1019 19.4731 16.1409 19.508 16.1866 19.5308C16.2323 19.5536 16.2832 19.5635 16.334 19.5596C17.2147 19.5552 18.0955 19.5576 18.9762 19.557C19.0261 19.557 19.0758 19.55 19.1584 19.5437C19.1098 19.4697 19.0782 19.4168 19.042 19.3674C18.1121 18.1001 17.1819 16.8329 16.2513 15.566C14.3401 12.9673 12.4285 10.3688 10.5164 7.77076C9.00175 5.71026 7.48897 3.64836 5.97803 1.58506C5.94843 1.53895 5.90737 1.50167 5.85905 1.47699C5.81073 1.45232 5.75686 1.44114 5.70292 1.44458C4.82795 1.44958 3.95318 1.44705 3.07805 1.44758C3.02262 1.44758 2.96723 1.45279 2.88166 1.45753Z"
                    fill="black" />
            </g>
        </g>
        <defs>
            <clipPath id="clip0_129_212">
                <rect width="22" height="21" fill="white" />
            </clipPath>
        </defs>
    </symbol>
    <symbol viewBox="0 0 26 26" id="next-arrow">
        <path
            d="M3.85518 13.2586L3.85518 11.1775L18.1251 11.1775L11.7333 4.78582L13.2198 3.29937L22.1385 12.218L13.2198 21.1367L11.7333 19.6503L18.1251 13.2586H3.85518Z"
            fill="white" />
    </symbol>
    <symbol viewBox="0 0 26 26" id="prev-arrow">
        <path
            d="M22.1446 12.7414L22.1446 14.8225L7.8747 14.8225L14.2664 21.2142L12.78 22.7006L3.8613 13.782L12.78 4.86329L14.2664 6.34973L7.8747 12.7414L22.1446 12.7414Z"
            fill="white" />
    </symbol>
    <symbol viewBox="0 0 25 25" id="radioActive" fill="#FFF">
        <circle cx="12.5" cy="12.5" r="12" stroke="#3CD174" />
        <circle cx="12.5" cy="12.5" r="6.5" fill="#3CD174" />
    </symbol>
    <symbol viewBox="0 0 25 25" id="radio" fill="#FFF">
        <circle cx="12.5" cy="12.5" r="12" stroke="#DDDDDD" />
        <circle cx="12.5" cy="12.5" r="6.5" fill="#DDDDDD" />
    </symbol>
</svg>